<svg xmlns="http://www.w3.org/2000/svg" width="80" height="78" viewBox="0 0 80 78" fill="none">
    <rect x="28.5469" y="-15" width="55.1778" height="77.6993" rx="15" transform="rotate(21.5558 28.5469 -15)"
          fill="url(#paint0_linear_7885_647)"/>
    <path fill-rule="evenodd" clip-rule="evenodd"
          d="M49.4094 23.8191C49.4055 23.8341 49.4012 23.8495 49.3965 23.8652C49.086 24.918 47.6361 25.6848 47.2328 26.7058C46.8887 27.5767 47.2183 28.6602 48.1547 28.6712C49.0826 28.6822 50.1377 28.1764 50.8317 26.4196L50.9013 26.2193C51.2327 25.2657 50.6135 24.2445 50.6272 23.2351C50.6322 22.8728 50.968 22.334 51.2745 22.1407L57.3092 18.333C58.782 17.4037 60.6661 18.5871 59.2046 19.534C58.2633 20.1439 58.835 21.5336 59.942 21.353L60.5983 21.246C61.3055 21.1307 61.9426 21.7074 61.4839 22.2579C61.1494 22.6594 60.5828 23.0167 59.6613 23.1479C58.6963 23.2853 58.6029 24.6425 59.5399 24.9108L60.3859 25.1531C60.9487 25.3142 61.3006 25.9226 60.9154 26.3636C60.5647 26.765 60.02 27.0538 59.2378 26.8433C58.2403 26.575 57.6337 27.8513 58.4538 28.4794L59.5999 29.3572C60.0871 29.7303 60.2584 30.4598 59.7226 30.7588C59.2861 31.0024 58.6896 31.0509 57.9709 30.5274C57.1064 29.8978 55.9875 30.8972 56.5203 31.8245L56.9192 32.5187C57.2479 33.0907 56.9919 33.8421 56.3412 33.7332C55.9565 33.6688 55.5433 33.4801 55.1759 33.0714C54.6017 32.4329 53.2808 32.8562 53.3658 33.7107L53.5101 35.161C53.5631 35.6946 53.1862 36.2024 52.6712 36.053C52.3282 35.9535 51.9769 35.747 51.7289 35.3578C51.4154 34.866 50.275 34.7681 50.1144 35.3288L49.7259 36.685C49.6269 37.0307 49.2784 37.263 48.9567 37.1023C48.4978 36.8731 48.1038 36.4257 48.408 35.6554L49.1728 33.7195C49.6532 32.5033 48.7211 31.0469 48.2407 32.2631L48.0547 32.734C47.7524 33.4991 46.8871 33.8744 46.122 33.5721C45.3568 33.2698 44.4915 33.6451 44.1892 34.4102L43.9796 34.9408C43.7902 35.4204 43.2478 35.6556 42.7682 35.4662C42.3324 35.294 41.8132 35.4754 41.7612 35.9411C41.6931 36.5505 41.9028 37.2702 42.9033 37.6655L44.5141 38.3018C45.1051 38.5352 45.5471 38.4889 46.1387 38.257C46.8745 37.9687 47.5902 38.9182 47.2999 39.6532L47.2023 39.9002C46.858 40.7716 45.8725 41.199 45.0011 40.8547L40.5378 39.0916C39.8927 38.8367 39.4417 38.2455 39.3665 37.5559C39.2912 36.8662 38.8402 36.275 38.1951 36.0201L38.1032 35.9838L38.0113 35.9475C37.3661 35.6927 36.6328 35.8161 36.1066 36.2681C35.5804 36.7201 34.8471 36.8435 34.2019 36.5887L29.7386 34.8255C28.8672 34.4813 28.4399 33.4958 28.7841 32.6244L28.8817 32.3773C29.172 31.6424 30.3434 31.4383 30.6835 32.1517C30.9569 32.7253 31.2479 33.0612 31.8389 33.2947L33.4497 33.931C34.4502 34.3262 35.0951 33.9441 35.462 33.4526C35.7422 33.0772 35.4872 32.5899 35.0514 32.4177C34.5718 32.2283 34.3366 31.6859 34.5261 31.2063L34.7356 30.6757C35.0379 29.9106 34.6627 29.0453 33.8975 28.743C33.1324 28.4407 32.7571 27.5754 33.0594 26.8103L33.2454 26.3394C33.7258 25.1233 32.05 25.5494 31.5696 26.7656L30.8048 28.7015C30.5005 29.4718 29.9071 29.5291 29.4155 29.3828C29.0708 29.2803 28.9751 28.8725 29.1391 28.5525L29.7824 27.2969C30.0484 26.7779 29.1489 26.0699 28.5839 26.2147C28.1368 26.3293 27.7393 26.24 27.4209 26.0783C26.9428 25.8353 27.0147 25.207 27.4181 24.8537L28.5146 23.8936C29.1606 23.3279 28.4856 22.1161 27.6301 22.1899C27.0826 22.2371 26.652 22.0925 26.3271 21.8765C25.7777 21.5113 26.1043 20.7879 26.7352 20.5949L27.5008 20.3608C28.5235 20.048 28.3897 18.5537 27.3283 18.4225C26.4458 18.3135 26.0436 17.8704 25.8914 17.3942C25.7046 16.8097 26.3282 16.3943 26.9388 16.4549L28.3754 16.5974C29.4034 16.6993 29.8328 15.353 28.9212 14.8672C28.2064 14.4862 28.006 13.9032 28.0244 13.3704C28.0446 12.7853 28.7172 12.5817 29.2383 12.8486L30.0214 13.2499C30.8888 13.6944 31.7481 12.6398 31.1376 11.88C30.5545 11.1545 30.3851 10.5064 30.4153 9.98466C30.4567 9.26931 31.3159 9.28369 31.7533 9.8512L32.1593 10.3779C32.8441 11.2662 34.2112 10.6425 33.9408 9.55387C33.521 7.86379 35.7052 8.28752 36.1453 9.97243L37.9485 16.8765C38.0401 17.227 37.9171 17.8499 37.6731 18.1178C36.9933 18.864 35.8433 19.1864 35.4335 20.1089L35.3474 20.3028C34.6534 22.0596 35.078 23.1499 35.7629 23.7761C36.454 24.4079 37.4351 23.8422 37.7792 22.9713C38.1825 21.9503 37.648 20.3996 38.1409 19.4188C38.1483 19.4042 38.1556 19.39 38.1629 19.3764C38.3249 18.9663 38.7887 18.7652 39.1988 18.9272L39.5188 19.0536C40.2856 19.3565 41.111 18.7722 41.0801 17.9483L41.0426 16.9478C41.0159 16.2355 40.5705 15.6064 39.9075 15.3445L39.6132 15.2282C39.4554 15.1658 39.3392 15.0682 39.255 14.9523C38.9336 14.5099 39.5494 14.13 40.058 14.3309L40.6907 14.5809C40.7932 14.6214 40.9091 14.5711 40.9496 14.4686C40.9901 14.366 40.9399 14.2501 40.8373 14.2096L39.882 13.8322C39.2519 13.5833 39.0251 12.8465 39.6731 12.6486C39.8119 12.6062 39.9499 12.5774 40.0761 12.5591C40.2857 12.5287 40.4966 12.5729 40.6936 12.6507L41.2706 12.8786C42.1091 13.2099 43.0522 13.1464 43.8388 12.7059L44.4982 12.3366C45.2848 11.896 46.2278 11.8326 47.0663 12.1638L47.4527 12.3164L47.839 12.469C48.6775 12.8003 49.3226 13.4911 49.5957 14.3503L49.8247 15.0705C50.0979 15.9297 50.743 16.6205 51.5815 16.9518L52.1585 17.1797C52.3555 17.2575 52.5396 17.3694 52.6719 17.5349C52.7515 17.6345 52.8326 17.7499 52.9049 17.8756C53.2427 18.4629 52.5736 18.8459 51.9435 18.5969L50.9881 18.2195C50.8856 18.179 50.7697 18.2293 50.7292 18.3318C50.6887 18.4344 50.739 18.5503 50.8415 18.5908L51.4742 18.8407C51.9828 19.0416 52.1727 19.7398 51.6357 19.8431C51.4951 19.8702 51.3435 19.8621 51.1857 19.7997L50.8913 19.6835C50.2284 19.4216 49.4733 19.5765 48.967 20.0782L48.2558 20.783C47.6702 21.3633 47.8734 22.354 48.6403 22.6569L48.9603 22.7833C49.3703 22.9453 49.5714 23.4091 49.4094 23.8191ZM45.2336 20.6236C44.928 20.9213 44.4763 21.012 44.0795 20.8552C43.6828 20.6985 43.4149 20.3236 43.3953 19.8974L43.2375 16.4705C43.2201 16.0925 43.2667 15.7114 43.427 15.3687C44.0063 14.1305 45.2748 12.5291 47.086 13.2445C48.8972 13.96 48.7288 15.996 48.3055 17.2959C48.1883 17.6557 47.9618 17.9657 47.6908 18.2297L45.2336 20.6236Z"
          fill="#845FDE"/>
    <path d="M49.7915 11.3764L49.0702 13.2024L45.6602 11.8553L46.3815 10.0293C44.6639 9.35083 44.894 8.25093 45.0975 7.73591L45.6523 6.3313L52.8512 9.1751L52.2963 10.5797C51.808 11.8158 50.423 11.6259 49.7915 11.3764Z"
          fill="#845FDE"/>
    <defs>
        <linearGradient id="paint0_linear_7885_647" x1="34.7138" y1="-21.7825" x2="80.2575" y2="69.3391"
                        gradientUnits="userSpaceOnUse">
            <stop stop-color="#FFE2D2"/>
            <stop offset="0.349961" stop-color="#C5EBF8"/>
            <stop offset="0.614652" stop-color="#E5DAFE"/>
            <stop offset="0.995039" stop-color="#F7DBC4"/>
        </linearGradient>
    </defs>
</svg>